<?xml version="1.0" encoding="utf-8"?>
<!-- Generator: Adobe Illustrator 19.1.0, SVG Export Plug-In . SVG Version: 6.00 Build 0)  -->
<!DOCTYPE svg PUBLIC "-//W3C//DTD SVG 1.1//EN" "http://www.w3.org/Graphics/SVG/1.1/DTD/svg11.dtd">
<svg version="1.1" id="Layer_1" xmlns="http://www.w3.org/2000/svg" xmlns:xlink="http://www.w3.org/1999/xlink" x="0px" y="0px"
	 viewBox="0 0 561.1 140.7" enable-background="new 0 0 561.1 140.7" xml:space="preserve">
<g>
	<path fill="#F1B51C" d="M32.1,140.7c-5.3,0-10.4-0.6-15.2-1.7c-4.8-1.2-9.3-2.8-13.4-5l6.3-13.7c3.4,1.8,6.8,3.3,10.2,4.3
		c3.4,1,7.3,1.6,11.6,1.6c6.3,0,10.9-1.5,13.9-4.5c3-3,4.5-7.3,4.5-13.1v-3.1c-2.7,3.3-5.7,5.9-8.9,7.7c-3.2,1.8-7.3,2.8-12.2,2.8
		c-3.8,0-7.4-0.7-10.8-2c-3.5-1.3-6.5-3.3-9.1-5.8c-2.6-2.6-4.8-5.7-6.3-9.5c-1.6-3.7-2.3-8-2.3-12.8v-0.2c0-4.8,0.8-9.1,2.4-12.8
		c1.6-3.7,3.7-6.9,6.4-9.4c2.6-2.6,5.7-4.5,9.1-5.8c3.4-1.3,7-2,10.7-2c5,0,9.1,0.9,12.3,2.8c3.2,1.8,6.1,4.1,8.5,6.9v-8.4h18.3
		v49.9c0,11.5-2.7,19.9-8.2,25.4c-3,3-6.9,5.3-11.5,6.6C43.8,140,38.3,140.7,32.1,140.7z M34.2,100.8c2.2,0,4.3-0.4,6.3-1.1
		c1.9-0.7,3.6-1.7,5-3.1c1.4-1.3,2.5-2.9,3.3-4.8c0.8-1.8,1.2-3.9,1.2-6v-0.2c0-2.2-0.4-4.2-1.2-6c-0.8-1.8-1.9-3.4-3.3-4.8
		c-1.4-1.3-3.1-2.3-5-3.1c-1.9-0.7-4-1.1-6.3-1.1c-2.2,0-4.3,0.4-6.2,1.1c-1.9,0.7-3.5,1.7-4.9,3.1c-1.4,1.3-2.5,2.9-3.3,4.8
		c-0.8,1.8-1.2,3.8-1.2,6v0.2c0,4.5,1.5,8.1,4.5,10.8C26,99.4,29.8,100.8,34.2,100.8z"/>
	<path fill="#F1B51C" d="M100.6,122.4c-7,0-12.4-2.1-16.2-6.4c-3.8-4.3-5.7-10.1-5.7-17.6V56.7H97v35.9c0,4.3,1,7.6,2.9,9.8
		c1.9,2.2,4.7,3.3,8.2,3.3c3.5,0,6.3-1.1,8.4-3.3c2-2.2,3.1-5.5,3.1-9.8V56.7h18.3v64.5h-18.3V112c-1,1.4-2.2,2.7-3.4,3.9
		c-1.2,1.3-2.6,2.4-4.2,3.3c-1.5,1-3.2,1.7-5.1,2.3C105,122.2,103,122.4,100.6,122.4z"/>
	<path fill="#F1B51C" d="M149,56.7h18.3V66c1-1.4,2.2-2.7,3.4-3.9c1.2-1.3,2.6-2.4,4.2-3.3c1.5-1,3.2-1.7,5.1-2.3
		c1.9-0.6,4-0.8,6.3-0.8c4.3,0,7.9,0.9,11,2.7c3.1,1.8,5.5,4.3,7.2,7.6c2.8-3.4,5.9-6,9.4-7.7c3.4-1.7,7.4-2.6,11.8-2.6
		c6.8,0,12.2,2,16,6c3.9,4,5.8,9.9,5.8,17.7v42h-18.3V85.3c0-4.3-0.9-7.6-2.8-9.8c-1.8-2.2-4.5-3.3-7.9-3.3c-3.5,0-6.2,1.1-8.1,3.3
		c-2,2.2-2.9,5.5-2.9,9.8v35.9H189V85.3c0-4.3-0.9-7.6-2.8-9.8c-1.8-2.2-4.5-3.3-7.9-3.3c-3.5,0-6.2,1.1-8.1,3.3
		c-2,2.2-2.9,5.5-2.9,9.8v35.9H149V56.7z"/>
	<path fill="#808285" d="M287,140.7c-5.3,0-10.4-0.6-15.2-1.7c-4.8-1.2-9.3-2.8-13.4-5l6.3-13.7c3.4,1.8,6.8,3.3,10.2,4.3
		c3.4,1,7.3,1.6,11.6,1.6c6.3,0,10.9-1.5,13.9-4.5c3-3,4.5-7.3,4.5-13.1v-3.1c-2.7,3.3-5.7,5.9-8.9,7.7c-3.2,1.8-7.3,2.8-12.2,2.8
		c-3.8,0-7.4-0.7-10.8-2c-3.4-1.3-6.5-3.3-9.2-5.8c-2.6-2.6-4.8-5.7-6.3-9.5c-1.6-3.7-2.3-8-2.3-12.8v-0.2c0-4.8,0.8-9.1,2.4-12.8
		c1.6-3.7,3.7-6.9,6.4-9.4c2.6-2.6,5.7-4.5,9.2-5.8c3.4-1.3,7-2,10.7-2c5,0,9.1,0.9,12.3,2.8c3.2,1.8,6.1,4.1,8.5,6.9v-8.4h18.3
		v49.9c0,11.5-2.7,19.9-8.2,25.4c-3.1,3-6.9,5.3-11.5,6.6C298.7,140,293.2,140.7,287,140.7z M289.1,100.8c2.2,0,4.3-0.4,6.3-1.1
		c1.9-0.7,3.6-1.7,5-3.1c1.4-1.3,2.5-2.9,3.3-4.8c0.8-1.8,1.2-3.9,1.2-6v-0.2c0-2.2-0.4-4.2-1.2-6c-0.8-1.8-1.9-3.4-3.3-4.8
		c-1.4-1.3-3.1-2.3-5-3.1c-1.9-0.7-4-1.1-6.3-1.1c-2.2,0-4.3,0.4-6.2,1.1c-1.9,0.7-3.5,1.7-4.9,3.1c-1.4,1.3-2.5,2.9-3.3,4.8
		c-0.8,1.8-1.2,3.8-1.2,6v0.2c0,4.5,1.5,8.1,4.5,10.8C280.9,99.4,284.6,100.8,289.1,100.8z"/>
	<path fill="#808285" d="M355.5,122.4c-7,0-12.4-2.1-16.2-6.4c-3.8-4.3-5.7-10.1-5.7-17.6V56.7h18.3v35.9c0,4.3,1,7.6,2.9,9.8
		c1.9,2.2,4.7,3.3,8.2,3.3c3.5,0,6.3-1.1,8.4-3.3c2-2.2,3.1-5.5,3.1-9.8V56.7h18.3v64.5h-18.3V112c-1,1.4-2.2,2.7-3.4,3.9
		c-1.2,1.3-2.6,2.4-4.2,3.3c-1.5,1-3.2,1.7-5.1,2.3C359.9,122.2,357.8,122.4,355.5,122.4z"/>
	<rect x="494.2" y="45.7" fill="#F1B51C" width="21.3" height="21.3"/>
	<path fill="#808285" d="M494.2,72.5h-5.5V67V56.3c-2-0.5-4.6-0.8-8.3-0.8c-4.4,0-8.3,0.9-11.8,2.6c-3.5,1.7-6.6,4.3-9.4,7.7
		c-1.7-3.3-4.1-5.9-7.2-7.6c-3.1-1.8-6.8-2.7-11-2.7c-2.3,0-4.4,0.3-6.3,0.8c-1.9,0.6-3.6,1.3-5.1,2.3c-1.5,1-2.9,2.1-4.2,3.3
		c-1.2,1.3-2.4,2.6-3.4,3.9v-9.2h-18.3v64.5h18.3V85.3c0-4.3,1-7.6,2.9-9.8c2-2.2,4.7-3.3,8.1-3.3c3.4,0,6.1,1.1,7.9,3.3
		c1.8,2.2,2.8,5.5,2.8,9.8v35.9h18.3V85.3c0-4.3,1-7.6,2.9-9.8c2-2.2,4.7-3.3,8.1-3.3c3.5,0,6.1,1.1,7.9,3.3
		c1.8,2.2,2.8,5.5,2.8,9.8v35.9h18.3v-42c0-2.4-0.2-4.7-0.6-6.8H494.2z"/>
	<path fill="#808285" d="M549,12.4v21.3h-21.3V12.4H549 M561.1,0.2h-45.7v45.7h45.7V0.2L561.1,0.2z"/>
</g>
</svg>
